<?xml version="1.0" encoding="UTF-8"?>
<svg width="830px" height="830px" viewBox="0 0 830 830" version="1.1" xmlns="http://www.w3.org/2000/svg" xmlns:xlink="http://www.w3.org/1999/xlink">
    <title>Custom Preset 3</title>
    <defs>
        <linearGradient x1="0%" y1="0%" x2="50%" y2="97.0714075%" id="linearGradient-1">
            <stop stop-color="#536DFE" offset="0%"></stop>
            <stop stop-color="#00BCD4" offset="100%"></stop>
        </linearGradient>
    </defs>
    <g id="Custom-Preset-3" stroke="none" stroke-width="1" fill="none" fill-rule="evenodd">
        <path d="M502.667788,49.0576475 L757.636342,234.303146 C810.209454,272.499747 832.208173,340.204845 812.127032,402.008244 L714.73771,701.741756 C694.656569,763.545155 637.063172,805.389207 572.079233,805.389207 L256.920767,805.389207 C191.936828,805.389207 134.343431,763.545155 114.26229,701.741756 L16.8729681,402.008244 C-3.20817349,340.204845 18.7905465,272.499747 71.3636577,234.303146 L326.332212,49.0576475 C378.905323,10.8610463 450.094677,10.8610463 502.667788,49.0576475 Z" id="Polygon" fill="url(#linearGradient-1)"></path>
        <g id="Logo" transform="translate(195.000000, 198.000000)" fill="#FFFFFF">
            <g id="update-svgrepo-com" fill-rule="nonzero">
                <path d="M362.732308,0 C350.211588,0 340.061538,10.1126597 340.061538,22.5872577 L340.061538,75.215568 C280.205628,21.8747335 194.511747,8.4759418 121.133254,40.9847173 C47.7547612,73.4934928 0.340244725,145.86312 0,225.872577 C0,238.347174 10.1500493,248.459834 22.6707692,248.459834 C35.1914892,248.459834 45.3415382,238.347174 45.3415385,225.872577 C45.684487,162.595011 83.86145,105.615614 142.385615,81.0335817 C200.90978,56.451549 268.50788,69.0020156 314.216862,112.936288 L249.378462,112.936288 C236.857741,112.936288 226.707692,123.048948 226.707692,135.523546 C226.707692,147.998144 236.857741,158.110804 249.378462,158.110804 L362.732308,158.110804 C375.253028,158.110804 385.403077,147.998144 385.403077,135.523546 L385.403077,22.5872577 C385.403077,10.1126597 375.253028,0 362.732308,0 Z" id="primary"></path>
                <path d="M385.329231,204.540166 C372.808511,204.540166 362.658462,214.652826 362.658462,227.127424 C362.578462,290.696071 324.294988,348.035525 265.480046,372.677361 C206.665105,397.319197 138.757108,384.471038 93.1030154,340.063712 L158.621538,340.063712 C171.142259,340.063712 181.292308,329.951052 181.292308,317.476454 C181.292308,305.001856 171.142259,294.889197 158.621538,294.889197 L45.2676923,294.889197 C32.7469722,294.889197 22.5969231,305.001856 22.5969231,317.476454 L22.5969231,430.412742 C22.5969231,442.88734 32.7469722,453 45.2676923,453 C57.7884124,453 67.9384615,442.88734 67.9384615,430.412742 L67.9384615,377.784432 C127.794372,431.125267 213.488253,444.524058 286.866746,412.015283 C360.245239,379.506507 407.659755,307.13688 408,227.127424 C408,214.652826 397.849951,204.540166 385.329231,204.540166 Z" id="secondary"></path>
            </g>
            <g id="Group-3" transform="translate(379.000000, 371.000000)">
                <rect id="Rectangle" x="35.7987805" y="0" width="31.402439" height="103" rx="8"></rect>
                <path d="M43.7987805,-4.26325641e-14 L59.2012195,-4.26325641e-14 C63.6194975,-4.43323671e-14 67.2012195,3.581722 67.2012195,8 L67.2012195,95 C67.2012195,99.418278 63.6194975,103 59.2012195,103 L43.7987805,103 C39.3805025,103 35.7987805,99.418278 35.7987805,95 L35.7987805,8 C35.7987805,3.581722 39.3805025,-4.18209396e-14 43.7987805,-4.26325641e-14 Z" id="Rectangle" transform="translate(51.500000, 51.500000) rotate(90.000000) translate(-51.500000, -51.500000) "></path>
            </g>
        </g>
    </g>
</svg>